Exact Audio Copy V0.99 prebeta 5 from 4. May 2009

EAC extraction logfile from 25. September 2010, 22:56

Apocalyptica feat. Ville Valo & Lauri Ylönen / Bittersweet

Used drive  : TSSTcorpCDRWDVD TSL462D   Adapter: 0  ID: 0

Read mode               : Secure
Utilize accurate stream : Yes
Defeat audio cache      : Yes
Make use of C2 pointers : No

Read offset correction                      : 6
Overread into Lead-In and Lead-Out          : No
Fill up missing offset samples with silence : Yes
Delete leading and trailing silent blocks   : No
Null samples used in CRC calculations       : Yes
Used interface                              : Native Win32 interface for Win NT & 2000
Gap handling                                : Appended to previous track

Used output format              : User Defined Encoder
Selected bitrate                : 128 kBit/s
Quality                         : High
Add ID3 tag                     : No
Command line compressor         : C:\Program Files\Exact Audio Copy\Flac\flac.exe
Additional command line options : -V -8 -T "artist=%a" -T "title=%t" -T "album=%g" -T "date=%y" -T "tracknumber=%n" -T "genre=%m" %s 


TOC of the extracted CD

     Track |   Start  |  Length  | Start sector | End sector 
    ---------------------------------------------------------
        1  |  0:00.00 |  3:27.21 |         0    |    15545   
        2  |  3:27.21 |  3:24.49 |     15546    |    30894   
        3  |  6:51.70 |  3:25.33 |     30895    |    46302   
        4  | 10:17.28 |  4:00.00 |     46303    |    64302   
        5  | 16:49.28 | 19:56.35 |     75703    |   165437   


Track  1

     Filename C:\EACrips\Apocalyptica feat. Ville Valo & Lauri Ylönen - 2004 - Bittersweet\01 - Bittersweet.wav

     Pre-gap length  0:00:02.00

     Peak level 98.9 %
     Track quality 100.0 %
     Test CRC B8CCDEE0
     Copy CRC B8CCDEE0
     Accurately ripped (confidence 10)  [93771136]
     Copy OK

Track  2

     Filename C:\EACrips\Apocalyptica feat. Ville Valo & Lauri Ylönen - 2004 - Bittersweet\02 - Bittersweet (Acoustic Version).wav

     Pre-gap length  0:00:04.89

     Peak level 98.9 %
     Track quality 100.0 %
     Test CRC 06AB2839
     Copy CRC 06AB2839
     Accurately ripped (confidence 11)  [F1316FFB]
     Copy OK

Track  3

     Filename C:\EACrips\Apocalyptica feat. Ville Valo & Lauri Ylönen - 2004 - Bittersweet\03 - Bittersweet (Instrumental Version).wav

     Pre-gap length  0:00:03.10

     Peak level 98.9 %
     Track quality 100.0 %
     Test CRC 740AB16C
     Copy CRC 740AB16C
     Accurately ripped (confidence 11)  [BD292016]
     Copy OK

Track  4

     Filename C:\EACrips\Apocalyptica feat. Ville Valo & Lauri Ylönen - 2004 - Bittersweet\04 - Misconstruction.wav

     Pre-gap length  0:00:02.98

     Peak level 100.0 %
     Track quality 100.0 %
     Test CRC FF299966
     Copy CRC FF299966
     Accurately ripped (confidence 9)  [988183FC]
     Copy OK


All tracks accurately ripped

No errors occurred

End of status report
